<svg width="18" height="18" viewBox="0 0 18 18" fill="none" xmlns="http://www.w3.org/2000/svg">
<path d="M5.25 3.62267C5.25 4.78292 6.5445 6.00617 7.6125 6.81767C8.21175 7.27217 8.511 7.50017 9 7.50017C9.489 7.50017 9.78825 7.27217 10.3875 6.81767C11.4555 6.00542 12.75 4.78217 12.75 3.62267C12.75 1.53017 10.6875 0.747922 9 2.36492C7.3125 0.747922 5.25 1.53017 5.25 3.62267ZM4.695 16.0412H4.5C3.79275 16.0412 3.4395 16.0412 3.21975 15.8214C3 15.6032 3 15.2492 3 14.5419V13.7079C3 13.3194 3 13.1252 3.09975 12.9512C3.1995 12.7772 3.35025 12.6902 3.65175 12.5147C5.63625 11.3604 8.454 10.7109 10.3343 11.8322C10.4608 11.9077 10.5733 11.9997 10.6718 12.1082C10.7727 12.2185 10.8504 12.3479 10.9004 12.4888C10.9504 12.6297 10.9717 12.7792 10.9628 12.9284C10.954 13.0776 10.9154 13.2236 10.8491 13.3576C10.7829 13.4916 10.6904 13.611 10.5772 13.7087C10.4871 13.7943 10.377 13.8561 10.257 13.8887C10.347 13.8782 10.4332 13.8664 10.5157 13.8534C11.199 13.7447 11.7727 13.3787 12.2977 12.9819L13.6537 11.9582C13.8958 11.7825 14.1872 11.688 14.4862 11.688C14.7853 11.688 15.0767 11.7825 15.3187 11.9582C15.7485 12.2829 15.8805 12.8177 15.6083 13.2542C15.291 13.7627 14.844 14.4129 14.415 14.8104C13.986 15.2079 13.3455 15.5634 12.8235 15.8154C12.2445 16.0952 11.6055 16.2557 10.9553 16.3614C9.63675 16.5744 8.26275 16.5414 6.95775 16.2729C6.21324 16.1197 5.45512 16.0415 4.695 16.0412Z" fill="#505050"/>
</svg>
