<svg width="90" height="30" viewBox="0 0 90 30" fill="none" xmlns="http://www.w3.org/2000/svg">
<g clip-path="url(#clip0_4_95)">
<path d="M86.2612 17.8531L88.7311 19.4996C87.9295 20.6803 86.0122 22.706 82.6975 22.706C78.5813 22.706 75.5159 19.5213 75.5159 15.47C75.5159 11.1589 78.6138 8.23413 82.3509 8.23413C86.1096 8.23413 87.951 11.2237 88.5469 12.8377L88.8719 13.6611L79.188 17.6689C79.9245 19.1205 81.0729 19.8571 82.6975 19.8571C84.3224 19.8571 85.4488 19.0555 86.2612 17.8531ZM78.668 15.2427L85.1348 12.5562C84.7773 11.6572 83.7159 11.0182 82.4483 11.0182C80.8345 11.0182 78.5922 12.448 78.668 15.2427Z" fill="#FF302F"/>
<path d="M70.8474 0.857422H73.9669V22.0452H70.8474V0.857422Z" fill="#20B15A"/>
<path d="M65.9295 8.79738H68.9408V21.6661C68.9408 27.0062 65.7886 29.2052 62.0623 29.2052C58.5528 29.2052 56.4406 26.8438 55.6498 24.9266L58.4119 23.7782C58.9101 24.9589 60.1125 26.3564 62.0623 26.3564C64.4562 26.3564 65.9295 24.8723 65.9295 22.0994V21.0595H65.8212C65.1061 21.926 63.7413 22.7059 62.0082 22.7059C58.3902 22.7059 55.0754 19.5537 55.0754 15.4918C55.0754 11.4079 58.3902 8.22339 62.0082 8.22339C63.7305 8.22339 65.1061 8.99248 65.8212 9.83739H65.9295V8.79738ZM66.146 15.4918C66.146 12.9353 64.4454 11.0721 62.279 11.0721C60.0908 11.0721 58.2494 12.9353 58.2494 15.4918C58.2494 18.0155 60.0908 19.8462 62.279 19.8462C64.4456 19.8571 66.1461 18.0155 66.1461 15.4918" fill="#3686F7"/>
<path d="M37.95 15.4376C37.95 19.608 34.7004 22.6734 30.7141 22.6734C26.728 22.6734 23.4783 19.5972 23.4783 15.4376C23.4783 11.2455 26.728 8.19092 30.7141 8.19092C34.7004 8.19092 37.95 11.2455 37.95 15.4376ZM34.787 15.4376C34.787 12.838 32.9021 11.0504 30.7141 11.0504C28.5261 11.0504 26.6412 12.838 26.6412 15.4376C26.6412 18.0156 28.5261 19.8247 30.7141 19.8247C32.9023 19.8247 34.787 18.0156 34.787 15.4376Z" fill="#FF302F"/>
<path d="M53.7542 15.47C53.7542 19.6404 50.5045 22.7058 46.5183 22.7058C42.532 22.7058 39.2825 19.6403 39.2825 15.47C39.2825 11.278 42.532 8.23413 46.5183 8.23413C50.5045 8.23413 53.7542 11.2672 53.7542 15.47ZM50.5803 15.47C50.5803 12.8704 48.6955 11.0829 46.5074 11.0829C44.3192 11.0829 42.4345 12.8704 42.4345 15.47C42.4345 18.048 44.3194 19.8571 46.5074 19.8571C48.7063 19.8571 50.5803 18.0372 50.5803 15.47Z" fill="#FFBA40"/>
<path d="M11.5846 19.5322C7.04587 19.5322 3.49307 15.8708 3.49307 11.3321C3.49307 6.79355 7.04587 3.13224 11.5846 3.13224C14.0327 3.13224 15.8199 4.09626 17.1414 5.33119L19.3188 3.15398C17.4774 1.38835 15.0185 0.0449219 11.5846 0.0449219C5.36702 0.0450958 0.13501 5.1147 0.13501 11.3321C0.13501 17.5495 5.36702 22.6193 11.5846 22.6193C14.9427 22.6193 17.4774 21.5144 19.4597 19.4563C21.496 17.4198 22.1243 14.5601 22.1243 12.2421C22.1243 11.5163 22.0377 10.7689 21.9401 10.2165H11.5846V13.2278H18.9613C18.7447 15.1127 18.1489 16.4017 17.2715 17.279C16.2099 18.3515 14.5311 19.5322 11.5846 19.5322Z" fill="#3686F7"/>
</g>
<defs>
<clipPath id="clip0_4_95">
<rect width="89.04" height="29.2126" fill="white"/>
</clipPath>
</defs>
</svg>
