<svg width="18" height="18" viewBox="0 0 18 18" fill="none" xmlns="http://www.w3.org/2000/svg">
<path d="M2.59504 6.91277L4.75279 3.15752C4.81779 3.04902 4.89479 2.97077 4.98379 2.92277C5.07229 2.87477 5.17079 2.85077 5.27929 2.85077C5.38779 2.85077 5.48629 2.87477 5.57479 2.92277C5.66329 2.97077 5.74029 3.04902 5.80579 3.15752L7.96279 6.91352C8.02529 7.01652 8.05354 7.11927 8.04754 7.22177C8.04104 7.32477 8.01154 7.42252 7.95904 7.51502C7.90904 7.60602 7.83904 7.67927 7.74904 7.73477C7.65904 7.79027 7.55404 7.81802 7.43404 7.81802H3.12379C3.00429 7.81802 2.89954 7.79027 2.80954 7.73477C2.71954 7.67927 2.64954 7.60602 2.59954 7.51502C2.54704 7.42252 2.51754 7.32502 2.51104 7.22252C2.50454 7.12002 2.53279 7.01702 2.59579 6.91352M5.29354 15.39C4.55504 15.39 3.93054 15.1348 3.42004 14.6243C2.90954 14.1138 2.65429 13.489 2.65429 12.75C2.65429 12.011 2.90929 11.3865 3.41929 10.8765C3.93029 10.366 4.55504 10.1108 5.29354 10.1108C6.03204 10.1108 6.65654 10.366 7.16704 10.8765C7.67754 11.387 7.93279 12.0115 7.93279 12.75C7.93279 13.4885 7.67754 14.113 7.16704 14.6235C6.65654 15.134 6.03204 15.3893 5.29354 15.3893M10.1393 14.784V10.716C10.1393 10.5445 10.1973 10.4008 10.3133 10.2848C10.4293 10.1688 10.5733 10.1108 10.7453 10.1108H14.8125C14.984 10.1108 15.128 10.1688 15.2445 10.2848C15.361 10.4008 15.419 10.5448 15.4185 10.7168V14.784C15.4185 14.9555 15.3605 15.0993 15.2445 15.2153C15.1285 15.3313 14.9845 15.3893 14.8125 15.3893H10.7453C10.5738 15.3893 10.43 15.3313 10.314 15.2153C10.198 15.0993 10.1398 14.9555 10.1393 14.784ZM12.3923 7.50602L11.745 6.97952C11.094 6.45602 10.5795 5.96827 10.2015 5.51627C9.82354 5.06427 9.63454 4.57677 9.63454 4.05377C9.63454 3.60677 9.78104 3.23777 10.074 2.94677C10.3665 2.65527 10.7393 2.50952 11.1923 2.50952C11.4913 2.50952 11.7708 2.58277 12.0308 2.72927C12.2908 2.87577 12.5403 3.09627 12.7793 3.39077C13.0178 3.10627 13.2718 2.88827 13.5413 2.73677C13.8113 2.58527 14.0908 2.50952 14.3798 2.50952C14.8198 2.50952 15.187 2.66277 15.4815 2.96927C15.776 3.27627 15.9233 3.65227 15.9233 4.09727C15.9233 4.60977 15.7343 5.08752 15.3563 5.53052C14.9783 5.97352 14.4638 6.45652 13.8128 6.97952L13.1655 7.50602C13.0565 7.60202 12.9275 7.65002 12.7785 7.65002C12.6295 7.65002 12.5008 7.60202 12.3923 7.50602Z" fill="#5B5B5B"/>
</svg>
