<svg width="18" height="18" viewBox="0 0 18 18" fill="none" xmlns="http://www.w3.org/2000/svg">
<path fill-rule="evenodd" clip-rule="evenodd" d="M4.49988 1.50049C3.90314 1.50049 3.33084 1.73754 2.90889 2.1595C2.48693 2.58145 2.24988 3.15375 2.24988 3.75049V14.2505C2.24988 14.8472 2.48693 15.4195 2.90889 15.8415C3.33084 16.2634 3.90314 16.5005 4.49988 16.5005H8.99988C9.59662 16.5005 10.1689 16.2634 10.5909 15.8415C11.0128 15.4195 11.2499 14.8472 11.2499 14.2505V3.75049C11.2499 3.15375 11.0128 2.58145 10.5909 2.1595C10.1689 1.73754 9.59662 1.50049 8.99988 1.50049H4.49988ZM12.2196 5.47024C12.3603 5.32964 12.551 5.25065 12.7499 5.25065C12.9488 5.25065 13.1395 5.32964 13.2801 5.47024L16.2801 8.47024C16.4207 8.61088 16.4997 8.80162 16.4997 9.00049C16.4997 9.19936 16.4207 9.39009 16.2801 9.53074L13.2801 12.5307C13.1387 12.6674 12.9492 12.743 12.7526 12.7412C12.5559 12.7395 12.3678 12.6607 12.2288 12.5216C12.0897 12.3825 12.0108 12.1944 12.0091 11.9978C12.0074 11.8011 12.083 11.6117 12.2196 11.4702L13.9394 9.75049H7.49988C7.30097 9.75049 7.1102 9.67147 6.96955 9.53082C6.8289 9.39017 6.74988 9.1994 6.74988 9.00049C6.74988 8.80158 6.8289 8.61081 6.96955 8.47016C7.1102 8.32951 7.30097 8.25049 7.49988 8.25049H13.9394L12.2196 6.53074C12.079 6.39009 12 6.19936 12 6.00049C12 5.80162 12.079 5.61088 12.2196 5.47024Z" fill="#505050"/>
</svg>
