<svg width="361" height="381" viewBox="0 0 361 381" fill="none" xmlns="http://www.w3.org/2000/svg">
<path d="M82.0626 246.558C62.8326 206.297 69.8826 156.625 103.227 123.277L124.395 102.113C152.59 73.918 152.59 28.199 124.395 0L53.4106 70.98C-17.4644 141.859 -18.1404 258.523 53.4066 328.73C95.0506 369.601 151.59 386.211 205.348 378.57L103.227 276.453C94.2776 267.5 87.2266 257.367 82.0626 246.558Z" fill="#176ACF"/>
<path d="M330.43 100.305C323.856 90.383 316.2 80.965 307.458 72.223C298.715 63.48 289.297 55.824 279.376 49.25L128.758 199.863L179.813 250.922L205.344 225.394L277.563 153.172C296.797 193.43 289.747 243.105 256.399 276.453L230.872 301.98L279.376 350.48C289.297 343.906 298.715 336.25 307.458 327.508C369.211 265.754 376.864 170.394 330.43 100.305Z" fill="#071E3C"/>
</svg>
