<svg width="18" height="18" viewBox="0 0 18 18" fill="none" xmlns="http://www.w3.org/2000/svg">
<g clip-path="url(#clip0_2618_1637)">
<g clip-path="url(#clip1_2618_1637)">
<path d="M14.0002 1H4.00024C3.73503 1 3.48067 1.10536 3.29314 1.29289C3.1056 1.48043 3.00024 1.73478 3.00024 2V16C3.00024 16.2652 3.1056 16.5196 3.29314 16.7071C3.48067 16.8946 3.73503 17 4.00024 17H14.0002C14.2655 17 14.5198 16.8946 14.7074 16.7071C14.8949 16.5196 15.0002 16.2652 15.0002 16V2C15.0002 1.73478 14.8949 1.48043 14.7074 1.29289C14.5198 1.10536 14.2655 1 14.0002 1ZM6.50024 13H5.50024V12H6.50024V13ZM6.50024 11H5.50024V10H6.50024V11ZM6.50024 9H5.50024V8H6.50024V9ZM6.50024 7H5.50024V6H6.50024V7ZM6.50024 5H5.50024V4H6.50024V5ZM12.5002 13H7.50024V12H12.5002V13ZM12.5002 11H7.50024V10H12.5002V11ZM12.5002 9H7.50024V8H12.5002V9ZM12.5002 7H7.50024V6H12.5002V7ZM12.5002 5H7.50024V4H12.5002V5Z" fill="#505050"/>
</g>
</g>
<defs>
<clipPath id="clip0_2618_1637">
<rect width="18" height="18" fill="white"/>
</clipPath>
<clipPath id="clip1_2618_1637">
<rect width="18" height="18" fill="white"/>
</clipPath>
</defs>
</svg>
