<svg width="18" height="18" viewBox="0 0 18 18" fill="none" xmlns="http://www.w3.org/2000/svg">
<path d="M9.00907 6.86563C8.48349 6.86563 7.9913 7.06953 7.61864 7.44219C7.24774 7.81484 7.04208 8.30703 7.04208 8.83262C7.04208 9.3582 7.24774 9.85039 7.61864 10.223C7.9913 10.5939 8.48349 10.7996 9.00907 10.7996C9.53466 10.7996 10.0268 10.5939 10.3995 10.223C10.7704 9.85039 10.9761 9.3582 10.9761 8.83262C10.9761 8.30703 10.7704 7.81484 10.3995 7.44219C10.2175 7.25877 10.0008 7.11335 9.76215 7.01437C9.52345 6.9154 9.26747 6.86483 9.00907 6.86563ZM16.2565 11.0053L15.1069 10.0227C15.1614 9.68867 15.1895 9.34766 15.1895 9.0084C15.1895 8.66914 15.1614 8.32637 15.1069 7.99414L16.2565 7.01152C16.3434 6.93718 16.4055 6.83816 16.4347 6.72763C16.4639 6.61711 16.4588 6.50031 16.42 6.39277L16.4042 6.34707C16.0878 5.46235 15.6137 4.64227 15.005 3.92656L14.9733 3.88965C14.8994 3.80273 14.8009 3.74025 14.6907 3.71044C14.5806 3.68062 14.464 3.68489 14.3563 3.72266L12.929 4.23066C12.4017 3.79824 11.8145 3.45723 11.1782 3.21992L10.9022 1.72754C10.8814 1.61511 10.8269 1.51168 10.7459 1.43099C10.6649 1.3503 10.5612 1.29617 10.4487 1.27578L10.4013 1.26699C9.4872 1.10176 8.52392 1.10176 7.60985 1.26699L7.56239 1.27578C7.44989 1.29617 7.34625 1.3503 7.26524 1.43099C7.18423 1.51168 7.1297 1.61511 7.10888 1.72754L6.83114 3.22695C6.20084 3.46614 5.61367 3.80633 5.09267 4.23418L3.65478 3.72266C3.54714 3.68459 3.43046 3.68017 3.32025 3.71C3.21005 3.73983 3.11153 3.80249 3.03778 3.88965L3.00614 3.92656C2.39844 4.64302 1.9245 5.4629 1.60692 6.34707L1.5911 6.39277C1.512 6.6125 1.57704 6.85859 1.75458 7.01152L2.91825 8.00469C2.86376 8.33516 2.83739 8.67266 2.83739 9.00664C2.83739 9.34414 2.86376 9.68164 2.91825 10.0086L1.7581 11.0018C1.67125 11.0761 1.6091 11.1751 1.5799 11.2856C1.55069 11.3962 1.55583 11.513 1.59462 11.6205L1.61044 11.6662C1.9286 12.5504 2.39794 13.3678 3.00966 14.0867L3.0413 14.1236C3.11522 14.2106 3.21375 14.273 3.32389 14.3028C3.43403 14.3327 3.55062 14.3284 3.65829 14.2906L5.09618 13.7791C5.62001 14.2098 6.2036 14.5508 6.83466 14.7863L7.11239 16.2857C7.13321 16.3982 7.18775 16.5016 7.26876 16.5823C7.34976 16.663 7.4534 16.7171 7.56591 16.7375L7.61337 16.7463C8.53642 16.9124 9.48172 16.9124 10.4048 16.7463L10.4522 16.7375C10.5647 16.7171 10.6684 16.663 10.7494 16.5823C10.8304 16.5016 10.8849 16.3982 10.9058 16.2857L11.1817 14.7934C11.8181 14.5543 12.4052 14.215 12.9325 13.7826L14.3599 14.2906C14.4675 14.3287 14.5842 14.3331 14.6944 14.3033C14.8046 14.2735 14.9031 14.2108 14.9768 14.1236L15.0085 14.0867C15.6202 13.3643 16.0895 12.5504 16.4077 11.6662L16.4235 11.6205C16.4991 11.4025 16.4341 11.1582 16.2565 11.0053ZM9.00907 11.9229C7.30224 11.9229 5.91884 10.5395 5.91884 8.83262C5.91884 7.12578 7.30224 5.74238 9.00907 5.74238C10.7159 5.74238 12.0993 7.12578 12.0993 8.83262C12.0993 10.5395 10.7159 11.9229 9.00907 11.9229Z" fill="#505050"/>
</svg>
