<svg width="18" height="18" viewBox="0 0 18 18" fill="none" xmlns="http://www.w3.org/2000/svg">
<path d="M15.75 2.25C15.9489 2.25 16.1397 2.32902 16.2803 2.46967C16.421 2.61032 16.5 2.80109 16.5 3V13.5C16.5 13.6989 16.421 13.8897 16.2803 14.0303C16.1397 14.171 15.9489 14.25 15.75 14.25H4.84125L1.5 16.875V3C1.5 2.80109 1.57902 2.61032 1.71967 2.46967C1.86032 2.32902 2.05109 2.25 2.25 2.25H15.75ZM7.88625 5.559C6.546 6.14025 5.625 7.31625 5.625 8.62875C5.625 9.375 5.83275 9.8355 6.219 10.2458C6.462 10.5037 6.84675 10.6875 7.2495 10.6875C7.42186 10.6875 7.59253 10.6536 7.75177 10.5876C7.91101 10.5216 8.0557 10.425 8.17758 10.3031C8.29945 10.1812 8.39613 10.0365 8.46209 9.87727C8.52805 9.71803 8.562 9.54736 8.562 9.375C8.56033 9.04503 8.43512 8.72765 8.21106 8.4854C7.987 8.24316 7.68034 8.09362 7.3515 8.06625C7.23188 8.05435 7.11127 8.05686 6.99225 8.07375V8.00475C6.99675 7.67475 7.06725 6.69975 8.2215 6.075L7.88625 5.559ZM11.6363 5.559C10.296 6.14025 9.375 7.31625 9.375 8.62875C9.375 9.375 9.58275 9.8355 9.969 10.2458C10.212 10.5037 10.5968 10.6875 10.9995 10.6875C11.3476 10.6875 11.6814 10.5492 11.9276 10.3031C12.1737 10.0569 12.312 9.7231 12.312 9.375C12.3103 9.04503 12.1851 8.72765 11.9611 8.4854C11.737 8.24316 11.4303 8.09362 11.1015 8.06625C10.9819 8.05435 10.8613 8.05686 10.7423 8.07375V8.00475C10.7467 7.67475 10.8173 6.69975 11.9715 6.075L11.6363 5.559Z" fill="#505050"/>
</svg>
