<svg width="18" height="18" viewBox="0 0 18 18" fill="none" xmlns="http://www.w3.org/2000/svg">
<path d="M5.25 3.62243C5.25 4.78268 6.5445 6.00593 7.6125 6.81743C8.21175 7.27193 8.511 7.49993 9 7.49993C9.489 7.49993 9.78825 7.27193 10.3875 6.81743C11.4555 6.00518 12.75 4.78193 12.75 3.62243C12.75 1.52993 10.6875 0.747678 9 2.36468C7.3125 0.747678 5.25 1.52993 5.25 3.62243ZM4.695 16.0409H4.5C3.79275 16.0409 3.4395 16.0409 3.21975 15.8212C3 15.6029 3 15.2489 3 14.5417V13.7077C3 13.3192 3 13.1249 3.09975 12.9509C3.1995 12.7769 3.35025 12.6899 3.65175 12.5144C5.63625 11.3602 8.454 10.7107 10.3343 11.8319C10.4608 11.9074 10.5733 11.9994 10.6718 12.1079C10.7727 12.2182 10.8504 12.3476 10.9004 12.4885C10.9504 12.6294 10.9717 12.7789 10.9628 12.9282C10.954 13.0774 10.9154 13.2233 10.8491 13.3574C10.7829 13.4914 10.6904 13.6108 10.5772 13.7084C10.4871 13.794 10.377 13.8559 10.257 13.8884C10.347 13.8779 10.4332 13.8662 10.5157 13.8532C11.199 13.7444 11.7727 13.3784 12.2977 12.9817L13.6537 11.9579C13.8958 11.7823 14.1872 11.6877 14.4862 11.6877C14.7853 11.6877 15.0767 11.7823 15.3187 11.9579C15.7485 12.2827 15.8805 12.8174 15.6083 13.2539C15.291 13.7624 14.844 14.4127 14.415 14.8102C13.986 15.2077 13.3455 15.5632 12.8235 15.8152C12.2445 16.0949 11.6055 16.2554 10.9553 16.3612C9.63675 16.5742 8.26275 16.5412 6.95775 16.2727C6.21324 16.1194 5.45512 16.0413 4.695 16.0409Z" fill="white"/>
</svg>
