<svg width="18" height="18" viewBox="0 0 18 18" fill="none" xmlns="http://www.w3.org/2000/svg">
<g clip-path="url(#clip0_1675_3140)">
<path d="M12.7497 2.99902C13.5792 2.99902 14.216 3.63127 14.6877 4.31152L14.8475 4.55227L14.9937 4.79227C15.0402 4.87077 15.0847 4.94777 15.1272 5.02327C15.7175 6.07852 16.2312 7.45627 16.571 8.81752C16.9085 10.1683 17.0952 11.579 16.976 12.6883C16.856 13.802 16.2822 14.999 14.9997 14.999C13.8492 14.999 12.9425 14.384 12.206 13.7833L11.3735 13.085C10.6812 12.518 9.92373 11.999 8.99973 11.999C8.07573 11.999 7.31748 12.518 6.62673 13.085L5.79423 13.7825C5.05623 14.384 4.14948 14.999 2.99973 14.999C1.71648 14.999 1.14273 13.802 1.02348 12.6883C0.904977 11.5783 1.09098 10.1683 1.42848 8.81752C1.76823 7.45627 2.28198 6.07852 2.87223 5.02327L3.00573 4.79152L3.15198 4.55227L3.31173 4.31152C3.78348 3.63127 4.42023 2.99902 5.24973 2.99902C5.63223 2.99902 6.01248 3.09202 6.38598 3.20152L6.83073 3.33802C6.90423 3.36052 6.97723 3.38202 7.04973 3.40252C7.69848 3.58852 8.36223 3.74902 8.99973 3.74902C9.63723 3.74902 10.301 3.58852 10.9497 3.40252L11.6135 3.20227C11.987 3.09202 12.3672 2.99902 12.7497 2.99902ZM6.37473 5.99902C5.87745 5.99902 5.40053 6.19657 5.0489 6.5482C4.69727 6.89983 4.49973 7.37674 4.49973 7.87402C4.49973 8.3713 4.69727 8.84822 5.0489 9.19985C5.40053 9.55148 5.87745 9.74902 6.37473 9.74902C6.87201 9.74902 7.34892 9.55148 7.70055 9.19985C8.05218 8.84822 8.24973 8.3713 8.24973 7.87402C8.24973 7.37674 8.05218 6.89983 7.70055 6.5482C7.34892 6.19657 6.87201 5.99902 6.37473 5.99902ZM11.6247 5.99902C11.4258 5.99902 11.2351 6.07804 11.0944 6.21869C10.9537 6.35935 10.8747 6.55011 10.8747 6.74902V7.12402H10.4997C10.3008 7.12402 10.1101 7.20304 9.9694 7.34369C9.82874 7.48435 9.74973 7.67511 9.74973 7.87402C9.74973 8.07294 9.82874 8.2637 9.9694 8.40435C10.1101 8.54501 10.3008 8.62402 10.4997 8.62402H10.8747V8.99902C10.8747 9.19794 10.9537 9.3887 11.0944 9.52935C11.2351 9.67001 11.4258 9.74902 11.6247 9.74902C11.8236 9.74902 12.0144 9.67001 12.1551 9.52935C12.2957 9.3887 12.3747 9.19794 12.3747 8.99902V8.62402H12.7497C12.9486 8.62402 13.1394 8.54501 13.2801 8.40435C13.4207 8.2637 13.4997 8.07294 13.4997 7.87402C13.4997 7.67511 13.4207 7.48435 13.2801 7.34369C13.1394 7.20304 12.9486 7.12402 12.7497 7.12402H12.3747V6.74902C12.3747 6.55011 12.2957 6.35935 12.1551 6.21869C12.0144 6.07804 11.8236 5.99902 11.6247 5.99902ZM6.37473 7.49902C6.47418 7.49902 6.56957 7.53853 6.63989 7.60886C6.71022 7.67918 6.74973 7.77457 6.74973 7.87402C6.74973 7.97348 6.71022 8.06886 6.63989 8.13919C6.56957 8.20952 6.47418 8.24902 6.37473 8.24902C6.27527 8.24902 6.17989 8.20952 6.10956 8.13919C6.03924 8.06886 5.99973 7.97348 5.99973 7.87402C5.99973 7.77457 6.03924 7.67918 6.10956 7.60886C6.17989 7.53853 6.27527 7.49902 6.37473 7.49902Z" fill="white"/>
</g>
<defs>
<clipPath id="clip0_1675_3140">
<rect width="18" height="18" fill="white"/>
</clipPath>
</defs>
</svg>
