<svg width="18" height="18" viewBox="0 0 18 18" fill="none" xmlns="http://www.w3.org/2000/svg">
<g clip-path="url(#clip0_1562_7346)">
<path d="M6.83617 0.00152644C6.73569 0.0164684 6.63972 0.0533405 6.55509 0.109526C6.55509 0.109526 5.67932 0.660603 4.73778 1.25668C3.79624 1.85206 2.74878 2.50837 2.50924 2.6413L2.46563 2.66207C1.59609 3.1986 1.4154 4.07507 1.38424 4.5666C1.38217 4.58945 1.38424 4.60814 1.38424 4.63237C1.37663 4.81653 1.38424 4.93491 1.38424 4.93491V13.9785C1.38424 15.2925 2.91632 15.9246 4.37017 15.9246C4.85478 15.9246 5.3394 15.8464 5.75478 15.7079C6.03171 15.5694 6.2304 15.2925 6.2304 15.0156V7.74637C6.2304 6.15407 6.57655 5.40637 7.61501 4.7833C7.89194 4.64483 10.7955 2.6406 10.7955 2.6406C10.9339 2.50214 11.0766 2.22107 11.0766 2.01337V1.9483C11.0766 1.67137 10.9381 1.45953 10.7304 1.32106C10.5227 1.1826 10.2458 1.1826 10.0381 1.32106C9.96886 1.3903 5.74578 4.2336 4.84578 4.71822C3.94578 5.27207 3.10601 5.40568 2.89832 5.12876C2.83394 5.06437 2.77786 4.86706 2.76886 4.6746V4.63099C2.76955 4.44268 2.81801 4.08822 3.20155 3.85214C3.59063 3.63545 4.5564 3.0186 5.49517 2.4246C5.89186 2.1733 5.94101 2.1463 6.25186 1.9483C6.29278 2.11742 6.39588 2.26494 6.54065 2.36148C6.68542 2.45802 6.86124 2.4965 7.0331 2.46927C7.20496 2.44204 7.36027 2.35108 7.4681 2.21452C7.57593 2.07795 7.62838 1.90579 7.61501 1.7323V0.693834C7.61579 0.595156 7.59546 0.497452 7.55538 0.407274C7.51531 0.317095 7.45643 0.236525 7.38267 0.170964C7.30892 0.105404 7.222 0.0563689 7.12774 0.0271461C7.03349 -0.00207665 6.93407 -0.0108117 6.83617 0.00152644ZM12.3746 2.4246C12.2645 2.44291 12.1605 2.48757 12.0714 2.55476C12.0714 2.55476 8.58632 4.8996 7.98263 5.30183L7.96117 5.32399C7.45994 5.69991 7.16294 6.14714 7.0307 6.5563C6.95703 6.78721 6.92058 7.02838 6.92271 7.27076V7.48745C6.92171 7.5089 6.92171 7.53038 6.92271 7.55183V15.9246C6.92271 17.24 8.43747 18.0015 9.82209 18.0015C10.4452 18.0015 11.0073 17.8672 11.4227 17.5903C12.2535 17.1057 16.2689 13.9778 16.2689 13.9778C16.4766 13.8394 16.615 13.6441 16.615 13.4365V4.43645C16.615 4.0903 16.4807 3.8826 16.2038 3.74414C15.9961 3.60568 15.6548 3.67076 15.4471 3.80922C14.3394 4.63999 11.3576 6.98553 10.6653 7.40091C9.69609 7.95476 8.78294 8.09322 8.43678 7.74706C8.29832 7.6086 8.30732 7.47845 8.30732 7.27076C8.31101 7.15076 8.32555 7.04968 8.35094 6.96753C8.3897 6.84706 8.46863 6.69891 8.76147 6.47045C8.77532 6.45937 8.7684 6.46006 8.78294 6.44899C9.28347 6.1146 10.8142 5.0713 11.8125 4.39283C11.869 4.54457 11.977 4.67167 12.1176 4.75204C12.2581 4.83241 12.4224 4.86096 12.5819 4.83273C12.7413 4.80449 12.8859 4.72126 12.9903 4.5975C13.0947 4.47375 13.1525 4.3173 13.1535 4.15537V3.11691C13.1542 3.01823 13.1339 2.92053 13.0938 2.83035C13.0538 2.74017 12.9949 2.6596 12.9211 2.59404C12.8474 2.52848 12.7605 2.47945 12.6662 2.45022C12.5719 2.421 12.4725 2.41227 12.3746 2.4246ZM15.2304 7.48745V8.87206L11.7689 11.5541V10.1694L15.2304 7.48745Z" fill="white"/>
</g>
<defs>
<clipPath id="clip0_1562_7346">
<rect width="18" height="18" fill="white"/>
</clipPath>
</defs>
</svg>
