<svg width="18" height="18" viewBox="0 0 18 18" fill="none" xmlns="http://www.w3.org/2000/svg">
<path d="M9.00907 6.86514C8.48349 6.86514 7.9913 7.06904 7.61864 7.4417C7.24774 7.81436 7.04208 8.30654 7.04208 8.83213C7.04208 9.35771 7.24774 9.8499 7.61864 10.2226C7.9913 10.5935 8.48349 10.7991 9.00907 10.7991C9.53466 10.7991 10.0268 10.5935 10.3995 10.2226C10.7704 9.8499 10.9761 9.35771 10.9761 8.83213C10.9761 8.30654 10.7704 7.81436 10.3995 7.4417C10.2175 7.25828 10.0008 7.11286 9.76215 7.01389C9.52345 6.91491 9.26747 6.86435 9.00907 6.86514ZM16.2565 11.0048L15.1069 10.0222C15.1614 9.68818 15.1895 9.34717 15.1895 9.00791C15.1895 8.66865 15.1614 8.32588 15.1069 7.99365L16.2565 7.01104C16.3434 6.93669 16.4055 6.83767 16.4347 6.72715C16.4639 6.61662 16.4588 6.49982 16.42 6.39229L16.4042 6.34658C16.0878 5.46186 15.6137 4.64178 15.005 3.92607L14.9733 3.88916C14.8994 3.80224 14.8009 3.73976 14.6907 3.70995C14.5806 3.68014 14.464 3.6844 14.3563 3.72217L12.929 4.23018C12.4017 3.79775 11.8145 3.45674 11.1782 3.21943L10.9022 1.72705C10.8814 1.61463 10.8269 1.5112 10.7459 1.4305C10.6649 1.34981 10.5612 1.29568 10.4487 1.27529L10.4013 1.2665C9.4872 1.10127 8.52392 1.10127 7.60985 1.2665L7.56239 1.27529C7.44989 1.29568 7.34625 1.34981 7.26524 1.4305C7.18423 1.5112 7.1297 1.61463 7.10888 1.72705L6.83114 3.22646C6.20084 3.46565 5.61367 3.80584 5.09267 4.23369L3.65478 3.72217C3.54714 3.6841 3.43046 3.67968 3.32025 3.70951C3.21005 3.73934 3.11153 3.802 3.03778 3.88916L3.00614 3.92607C2.39844 4.64253 1.9245 5.46241 1.60692 6.34658L1.5911 6.39229C1.512 6.61201 1.57704 6.85811 1.75458 7.01104L2.91825 8.0042C2.86376 8.33467 2.83739 8.67217 2.83739 9.00615C2.83739 9.34365 2.86376 9.68115 2.91825 10.0081L1.7581 11.0013C1.67125 11.0756 1.6091 11.1746 1.5799 11.2852C1.55069 11.3957 1.55583 11.5125 1.59462 11.62L1.61044 11.6657C1.9286 12.5499 2.39794 13.3673 3.00966 14.0862L3.0413 14.1231C3.11522 14.2101 3.21375 14.2725 3.32389 14.3024C3.43403 14.3322 3.55062 14.3279 3.65829 14.2901L5.09618 13.7786C5.62001 14.2093 6.2036 14.5503 6.83466 14.7858L7.11239 16.2853C7.13321 16.3977 7.18775 16.5011 7.26876 16.5818C7.34976 16.6625 7.4534 16.7166 7.56591 16.737L7.61337 16.7458C8.53642 16.9119 9.48172 16.9119 10.4048 16.7458L10.4522 16.737C10.5647 16.7166 10.6684 16.6625 10.7494 16.5818C10.8304 16.5011 10.8849 16.3977 10.9058 16.2853L11.1817 14.7929C11.8181 14.5538 12.4052 14.2146 12.9325 13.7821L14.3599 14.2901C14.4675 14.3282 14.5842 14.3326 14.6944 14.3028C14.8046 14.273 14.9031 14.2103 14.9768 14.1231L15.0085 14.0862C15.6202 13.3638 16.0895 12.5499 16.4077 11.6657L16.4235 11.62C16.4991 11.4021 16.4341 11.1577 16.2565 11.0048ZM9.00907 11.9224C7.30224 11.9224 5.91884 10.539 5.91884 8.83213C5.91884 7.12529 7.30224 5.74189 9.00907 5.74189C10.7159 5.74189 12.0993 7.12529 12.0993 8.83213C12.0993 10.539 10.7159 11.9224 9.00907 11.9224Z" fill="white"/>
</svg>
