<svg width="18" height="18" viewBox="0 0 18 18" fill="none" xmlns="http://www.w3.org/2000/svg">
<g clip-path="url(#clip0_1562_9395)">
<path fill-rule="evenodd" clip-rule="evenodd" d="M6.93394 2.12143C7.61228 1.98809 8.30234 1.92347 8.99365 1.92857C11.3851 1.92857 13.1182 2.59843 14.2535 3.735C15.3888 4.87157 16.0586 6.606 16.0586 9C16.0586 10.4451 15.8144 11.6486 15.3721 12.6283L14.4258 12.0819C14.2555 11.9839 14.0594 11.9402 13.8637 11.9567C13.6679 11.9732 13.4819 12.0491 13.3305 12.1743C13.1791 12.2994 13.0695 12.4678 13.0164 12.6569C12.9633 12.8461 12.9692 13.0469 13.0334 13.2326L13.8074 15.4646C13.8833 15.6836 14.0355 15.8679 14.2362 15.9838C14.4369 16.0998 14.6726 16.1395 14.9002 16.0959L17.2184 15.651C17.4118 15.6141 17.5892 15.5188 17.7269 15.3781C17.8646 15.2373 17.9559 15.0578 17.9885 14.8636C18.0211 14.6694 17.9935 14.4699 17.9094 14.2918C17.8253 14.1138 17.6887 13.9658 17.5179 13.8677L17.0487 13.5977C17.6786 12.2889 17.9872 10.737 17.9872 9C17.9872 6.25114 17.2119 3.96771 15.6177 2.37214C14.0234 0.776571 11.7412 0 8.99365 0C8.13136 0 7.31751 0.0771429 6.55208 0.231429C6.42589 0.25432 6.30554 0.302153 6.19806 0.372127C6.09059 0.442101 5.99815 0.532811 5.92616 0.638947C5.85417 0.745083 5.80408 0.864512 5.77881 0.990245C5.75355 1.11598 5.75361 1.24549 5.77901 1.3712C5.80441 1.4969 5.85463 1.61628 5.92673 1.72234C5.99882 1.8284 6.09136 1.91902 6.1989 1.98888C6.30645 2.05874 6.42685 2.10645 6.55306 2.12921C6.67928 2.15197 6.80876 2.14932 6.93394 2.12143ZM4.18894 2.55857C4.11375 2.31904 3.94811 2.11827 3.72723 1.99894C3.50634 1.87962 3.24763 1.85114 3.00608 1.91957L0.781792 2.34771C0.588752 2.38492 0.411696 2.48024 0.274351 2.6209C0.137007 2.76156 0.0459362 2.94084 0.0133444 3.13471C-0.0192475 3.32858 0.0081967 3.52779 0.0919989 3.70562C0.175801 3.88346 0.311957 4.03143 0.482221 4.12971L0.942507 4.39586C0.311221 5.706 7.80542e-05 7.25914 7.80542e-05 9C7.80542e-05 11.7489 0.775364 14.0323 2.36965 15.6279C3.96394 17.2234 6.24608 18 8.99365 18C9.85251 18 10.6617 17.9241 11.4211 17.7724C11.6652 17.7157 11.8777 17.5661 12.0134 17.3553C12.1492 17.1446 12.1975 16.8892 12.1482 16.6435C12.0988 16.3977 11.9557 16.1808 11.7492 16.0387C11.5427 15.8966 11.289 15.8406 11.0418 15.8824C10.3671 16.0137 9.68096 16.077 8.99365 16.0714C6.60222 16.0714 4.86908 15.4016 3.73508 14.265C2.59722 13.1271 1.92865 11.394 1.92865 9C1.92865 7.55229 2.17294 6.345 2.61908 5.36529L3.55765 5.90529C3.72764 6.00197 3.92301 6.04469 4.11784 6.02776C4.31268 6.01084 4.49776 5.93507 4.64853 5.81052C4.7993 5.68597 4.90864 5.51852 4.96204 5.33039C5.01544 5.14225 5.01037 4.94233 4.94751 4.75714L4.18894 2.55857ZM10.0826 7.07143C9.78786 6.8989 9.4473 6.82082 9.10679 6.84771C8.64008 6.88757 8.38165 7.04057 8.24794 7.173C8.18896 7.22775 8.14178 7.29396 8.10928 7.36758C8.07679 7.4412 8.05965 7.52067 8.05894 7.60114C8.05894 7.75157 8.08979 7.80429 8.09622 7.81457C8.10265 7.82486 8.12193 7.85571 8.20165 7.90071C8.40865 8.019 8.73265 8.08843 9.28808 8.19129L9.34336 8.20157C9.80108 8.28514 10.4555 8.40729 10.9865 8.71843C11.2886 8.89586 11.5792 9.14786 11.7901 9.50914C11.9997 9.87171 12.0935 10.2819 12.0935 10.7216C12.0935 11.4017 11.7245 11.9353 11.3092 12.2863C10.9672 12.5682 10.5726 12.7793 10.1482 12.9073V13.6877C10.1482 13.9435 10.0466 14.1887 9.86579 14.3696C9.68495 14.5504 9.43968 14.652 9.18394 14.652C8.92819 14.652 8.68292 14.5504 8.50208 14.3696C8.32124 14.1887 8.21965 13.9435 8.21965 13.6877V13.0474C7.46961 12.9325 6.77014 12.5988 6.20879 12.0883C6.02965 11.9135 5.92546 11.676 5.91824 11.4258C5.91101 11.1757 6.00133 10.9325 6.17009 10.7477C6.33886 10.5629 6.57285 10.451 6.82263 10.4356C7.07241 10.4201 7.31841 10.5024 7.50865 10.665C8.02679 11.1369 8.75322 11.2564 9.38451 11.1176C9.69822 11.0481 9.92965 10.9273 10.0634 10.8141C10.1043 10.7839 10.1388 10.7459 10.1649 10.7023C10.1677 10.6255 10.1532 10.549 10.1225 10.4786C10.094 10.4375 10.0555 10.4043 10.0106 10.3821C9.80751 10.2626 9.48608 10.1893 8.93579 10.0864L8.85993 10.0736C8.40993 9.99 7.76708 9.87171 7.24893 9.57729C6.91691 9.39422 6.63821 9.12793 6.44022 8.80457C6.2296 8.43905 6.1229 8.02291 6.13165 7.60114C6.13165 6.41829 6.92879 5.418 8.21965 5.05543V4.31229C8.21965 4.05654 8.32124 3.81127 8.50208 3.63043C8.68292 3.44959 8.92819 3.348 9.18394 3.348C9.43968 3.348 9.68495 3.44959 9.86579 3.63043C10.0466 3.81127 10.1482 4.05654 10.1482 4.31229V5.02971C10.7813 5.19793 11.3582 5.53164 11.8196 5.99657L11.8364 6.01457L11.8428 6.021L11.8454 6.02357L11.8466 6.02486L11.1292 6.67029L11.8466 6.02743C12.01 6.21797 12.0926 6.46469 12.077 6.71517C12.0613 6.96566 11.9486 7.20018 11.7628 7.3689C11.577 7.53762 11.3328 7.62726 11.0819 7.61877C10.8311 7.61028 10.5935 7.50433 10.4195 7.32343L10.4131 7.317C10.3126 7.22322 10.2018 7.13998 10.0826 7.07143Z" fill="white"/>
</g>
<defs>
<clipPath id="clip0_1562_9395">
<rect width="18" height="18" fill="white"/>
</clipPath>
</defs>
</svg>
