<svg width="18" height="18" viewBox="0 0 18 18" fill="none" xmlns="http://www.w3.org/2000/svg">
<path fill-rule="evenodd" clip-rule="evenodd" d="M5.99988 5.25C5.99988 4.45435 6.31595 3.69129 6.87856 3.12868C7.44117 2.56607 8.20423 2.25 8.99988 2.25C9.79553 2.25 10.5586 2.56607 11.1212 3.12868C11.6838 3.69129 11.9999 4.45435 11.9999 5.25C11.9999 6.04565 11.6838 6.80871 11.1212 7.37132C10.5586 7.93393 9.79553 8.25 8.99988 8.25C8.20423 8.25 7.44117 7.93393 6.87856 7.37132C6.31595 6.80871 5.99988 6.04565 5.99988 5.25ZM5.99988 9.75C5.00532 9.75 4.05149 10.1451 3.34823 10.8483C2.64497 11.5516 2.24988 12.5054 2.24988 13.5C2.24988 14.0967 2.48693 14.669 2.90889 15.091C3.33084 15.5129 3.90314 15.75 4.49988 15.75H13.4999C14.0966 15.75 14.6689 15.5129 15.0909 15.091C15.5128 14.669 15.7499 14.0967 15.7499 13.5C15.7499 12.5054 15.3548 11.5516 14.6515 10.8483C13.9483 10.1451 12.9944 9.75 11.9999 9.75H5.99988Z" fill="white"/>
</svg>
