<svg width="64" height="64" viewBox="0 0 64 64" fill="none" xmlns="http://www.w3.org/2000/svg">
<path fill-rule="evenodd" clip-rule="evenodd" d="M32 63.5C36.1366 63.5 40.2328 62.6852 44.0545 61.1022C47.8763 59.5192 51.3488 57.1989 54.2739 54.2739C57.1989 51.3488 59.5192 47.8763 61.1022 44.0545C62.6852 40.2328 63.5 36.1366 63.5 32C63.5 27.8634 62.6852 23.7672 61.1022 19.9455C59.5192 16.1237 57.1989 12.6512 54.2739 9.72614C51.3488 6.80109 47.8763 4.48082 44.0545 2.89779C40.2328 1.31477 36.1366 0.5 32 0.5C23.6457 0.5 15.6335 3.81874 9.72614 9.72614C3.81874 15.6335 0.5 23.6457 0.5 32C0.5 40.3543 3.81874 48.3665 9.72614 54.2739C15.6335 60.1813 23.6457 63.5 32 63.5ZM31.188 44.74L48.688 23.74L43.312 19.26L28.262 37.3165L20.4745 29.5255L15.5255 34.4745L26.0255 44.9745L28.7345 47.6835L31.188 44.74Z" fill="#229EDA"/>
</svg>
