<svg width="14" height="14" viewBox="0 0 14 14" fill="none" xmlns="http://www.w3.org/2000/svg">
<path d="M13.2859 5.3998C13.2401 5.25185 13.1181 5.14403 12.9713 5.1217L8.84669 4.49337L7.00206 0.575301C6.93641 0.435824 6.8009 0.347534 6.65254 0.347534C6.50416 0.347534 6.36867 0.435824 6.303 0.575301L4.45828 4.49337L0.333739 5.1217C0.186942 5.14403 0.0649363 5.25186 0.0190965 5.39978C-0.0267693 5.54773 0.0114825 5.71011 0.11774 5.81867L3.10221 8.86847L2.39778 13.1749C2.37268 13.3282 2.43281 13.4831 2.55284 13.5746C2.62074 13.6263 2.70117 13.6526 2.78199 13.6526C2.84404 13.6526 2.9063 13.6371 2.96332 13.6056L6.65251 11.5724L10.3416 13.6056C10.4729 13.678 10.632 13.6659 10.7521 13.5745C10.8721 13.4831 10.9322 13.3282 10.9072 13.1748L10.2025 8.86847L13.1873 5.81864C13.2935 5.71011 13.3318 5.54773 13.2859 5.3998Z" fill="#F6D060"/>
</svg>
