<svg width="14" height="14" viewBox="0 0 14 14" fill="none" xmlns="http://www.w3.org/2000/svg">
<path d="M13.6814 5.3998C13.6356 5.25185 13.5136 5.14403 13.3668 5.1217L9.2422 4.49337L7.39756 0.575301C7.33192 0.435824 7.1964 0.347534 7.04805 0.347534C6.89967 0.347534 6.76417 0.435824 6.69851 0.575301L4.85379 4.49337L0.729246 5.1217C0.58245 5.14403 0.460444 5.25186 0.414604 5.39978C0.368739 5.54773 0.40699 5.71011 0.513248 5.81867L3.49772 8.86847L2.79329 13.1749C2.76818 13.3282 2.82832 13.4831 2.94835 13.5746C3.01625 13.6263 3.09668 13.6526 3.17749 13.6526C3.23955 13.6526 3.30181 13.6371 3.35883 13.6056L7.04802 11.5724L10.7371 13.6056C10.8684 13.678 11.0275 13.6659 11.1476 13.5745C11.2676 13.4831 11.3278 13.3282 11.3027 13.1748L10.598 8.86847L13.5828 5.81864C13.6891 5.71011 13.7273 5.54773 13.6814 5.3998Z" fill="#E2E5EA"/>
</svg>
